PathFileType  4	(X/Y/Z) C:\Users\antoi\Documents\MyRepositories\mobilecap\ResultsAnalysis
DataRate	CameraRate	NumFrames	NumMarkers	Units	OrigDataRate	OrigDataStartFrame	OrigNumFrames
100.0	100.0	4	51	mm	100.0	110	291
Frame#	Time	r_knee			r_shank_antsup			r_ankle			r_calc			r_5meta			r_toe			L_knee			L_shank_antsup			L_ankle			L_calc			L_5meta			L_toe			r_sh2			r_sh3			r_sh4			L_sh2			L_sh3			r_thigh1			r_thigh2			r_thigh3			r_thigh4			r_thigh5			L_thigh1			L_thigh2			L_thigh3			L_thigh4			r.ASIS			r.PSIS			L.ASIS			L.PSIS			C7			R_Shoulder			L_Shoulder			R_Sternum			L_Sternum			R_humerus			R_elbow_med			R_elbow_lat			R_forearm			R_wrist_radius			R_wrist_ulna			L_humerus			L_elbow_med			L_elbow_lat			L_forearm			L_wrist_radius			L_wrist_ulna			R_HJC			L_HJC			R_HJC_reg			L_HJC_reg			
		X1	Y1	Z1	X2	Y2	Z2	X3	Y3	Z3	X4	Y4	Z4	X5	Y5	Z5	X6	Y6	Z6	X7	Y7	Z7	X8	Y8	Z8	X9	Y9	Z9	X10	Y10	Z10	X11	Y11	Z11	X12	Y12	Z12	X13	Y13	Z13	X14	Y14	Z14	X15	Y15	Z15	X16	Y16	Z16	X17	Y17	Z17	X18	Y18	Z18	X19	Y19	Z19	X20	Y20	Z20	X21	Y21	Z21	X22	Y22	Z22	X23	Y23	Z23	X24	Y24	Z24	X25	Y25	Z25	X26	Y26	Z26	X27	Y27	Z27	X28	Y28	Z28	X29	Y29	Z29	X30	Y30	Z30	X31	Y31	Z31	X32	Y32	Z32	X33	Y33	Z33	X34	Y34	Z34	X35	Y35	Z35	X36	Y36	Z36	X37	Y37	Z37	X38	Y38	Z38	X39	Y39	Z39	X40	Y40	Z40	X41	Y41	Z41	X42	Y42	Z42	X43	Y43	Z43	X44	Y44	Z44	X45	Y45	Z45	X46	Y46	Z46	X47	Y47	Z47	X48	Y48	Z48	X49	Y49	Z49	X50	Y50	Z50	X51	Y51	Z51	

110	1.09000000	-930.65401	735.24884	-428.92320	-966.33148	709.64789	-399.25307	-1206.45636	448.58788	-450.65534	-1280.97045	431.57058	-505.40053	-1121.08231	346.90044	-417.24010	-1071.32749	358.18253	-468.73185	-946.02397	741.27747	-730.91809	-960.77305	656.78246	-749.92869	-1208.67606	447.68148	-717.56513	-1284.97258	431.40097	-667.75967	-1123.02690	349.06678	-733.64001	-1077.32900	358.83208	-679.34390	-1042.41609	621.85597	-396.76602	-912.95915	669.83971	-437.99895	-988.70642	584.65983	-451.61133	-1018.10339	722.98391	-750.19436	-1101.72412	631.32189	-752.33192	-864.02087	1031.90380	-474.66203	-845.52229	923.20237	-465.68970	-862.53079	900.90633	-404.12911	-923.94071	1027.79660	-379.88275	-911.44551	913.01500	-380.06348	-931.14369	1061.32515	-741.41189	-922.10088	919.99494	-756.88436	-1042.81560	1052.85520	-735.22753	-1031.69585	912.20900	-717.66023	-871.98552	1187.26198	-438.78530	-1045.05791	1275.62515	-508.50257	-889.74163	1172.77374	-676.61467	-1051.53768	1275.85668	-605.50215	-824.66520	1686.77291	-573.10165	-766.03403	1656.36156	-437.13781	-774.49630	1641.90103	-709.15354	-736.61964	1567.95086	-547.44879	-739.19159	1563.56751	-582.49495	-631.11117	1500.88309	-342.23725	-603.11217	1376.88922	-360.58437	-578.29887	1424.37652	-311.41347	-497.92334	1524.32909	-374.99928	-465.51025	1596.10912	-437.04910	-428.69111	1575.23029	-423.56510	-676.24124	1469.00733	-815.83710	-642.71502	1340.86607	-788.86676	-622.95477	1373.78466	-846.31416	-518.57181	1455.92753	-777.76054	-466.20444	1513.58853	-706.22720	-435.76105	1486.80108	-724.96764	-970.26111	1131.91848	-467.16426	-991.16762	1135.04159	-656.66001	-963.06021	1132.79691	-465.98062	-973.57150	1133.17341	-623.32371	
111	1.10000000	-924.58527	748.54224	-426.59789	-960.40221	723.13562	-396.33580	-1198.32891	455.64609	-446.79599	-1272.35812	445.40388	-500.70785	-1118.64256	348.40982	-416.18659	-1068.65174	358.13308	-467.55104	-937.12913	754.36078	-731.48384	-952.23605	670.19271	-750.63143	-1199.18643	458.45119	-719.27936	-1274.81470	447.81623	-669.14893	-1120.11962	351.25149	-733.83837	-1073.95269	358.95067	-679.70364	-1036.46308	634.87991	-393.06264	-907.36594	683.26331	-435.18857	-982.50419	597.26790	-447.98207	-1009.95245	736.03988	-750.89324	-1093.09775	644.02677	-752.81046	-847.50277	1042.51010	-475.75397	-832.83368	933.76744	-465.26820	-850.36330	912.31648	-403.51316	-907.49681	1041.24617	-380.31644	-898.65756	926.62691	-378.82719	-912.24359	1074.02583	-739.81681	-906.72651	932.53225	-756.14913	-1024.35725	1068.31514	-737.28203	-1017.42990	927.14642	-718.95403	-853.90552	1203.61170	-439.61522	-1028.32878	1288.17834	-508.68792	-871.16143	1189.10987	-676.62168	-1034.90233	1288.46506	-606.61446	-818.94735	1704.27345	-571.93392	-763.41173	1675.95750	-437.05108	-770.52021	1662.00411	-706.50961	-733.32752	1586.12685	-543.61935	-732.53360	1582.34820	-579.77784	-629.23378	1521.19023	-339.51640	-598.90804	1397.15494	-359.98315	-575.76608	1444.34760	-309.30779	-500.37127	1548.64740	-372.29641	-472.91608	1622.85550	-433.79235	-434.80886	1603.99489	-420.97723	-671.95153	1490.82827	-816.15531	-635.79520	1362.75648	-788.49159	-618.13461	1395.60798	-847.57256	-517.79284	1481.87675	-777.68292	-469.25679	1541.50279	-705.51026	-437.39675	1516.33675	-723.44210	-950.82106	1146.18872	-467.80066	-971.58284	1149.06264	-657.31687	-943.49970	1147.41030	-466.77042	-954.02127	1147.86717	-623.54701	
112	1.11000000	-915.56698	763.16995	-424.54396	-951.99911	737.82844	-393.87612	-1187.62455	465.50035	-442.98846	-1260.73103	461.57142	-496.20176	-1115.60228	350.89893	-415.05856	-1064.95846	358.44551	-466.20487	-924.65534	768.34553	-731.85776	-940.47180	684.38840	-751.30105	-1186.98236	471.13624	-720.73554	-1261.65292	466.45545	-670.14371	-1116.25232	355.06291	-733.95857	-1069.52950	359.63585	-679.83561	-1027.81630	649.68087	-389.90221	-898.91714	698.12175	-432.62013	-973.55572	611.44464	-444.10891	-998.36476	749.67824	-751.74790	-1081.34447	657.91851	-753.28676	-831.13323	1055.43742	-475.60775	-819.33283	945.83428	-465.41429	-837.10734	925.22611	-403.14602	-891.24011	1055.48130	-380.74251	-884.80035	941.19750	-377.75692	-893.79598	1087.48809	-738.48197	-890.51065	946.01112	-755.52891	-1006.11030	1083.68140	-739.02815	-1002.02935	942.30643	-720.11311	-836.74145	1220.08748	-440.49191	-1012.19685	1301.34097	-508.94067	-853.34234	1205.97655	-676.58911	-1018.82281	1301.73407	-607.66982	-812.23495	1721.53694	-570.34270	-759.40064	1694.07285	-436.29910	-765.96799	1680.87172	-704.50365	-725.87839	1604.93688	-542.50879	-725.10557	1601.18293	-578.48657	-627.65925	1538.54127	-336.49154	-596.13753	1414.23687	-358.93813	-573.63519	1460.95811	-306.97688	-502.58606	1568.38097	-369.13821	-479.16256	1644.26427	-430.39890	-440.17331	1627.33092	-417.91604	-668.27916	1510.70060	-816.97282	-631.99146	1381.55564	-789.03372	-614.62428	1414.89096	-849.00418	-517.46869	1503.98243	-777.98776	-472.11412	1564.81849	-705.01666	-439.17931	1540.83168	-722.17285	-932.33905	1160.86200	-468.57301	-952.80636	1163.79181	-658.12026	-924.90060	1162.60558	-467.64718	-935.37718	1163.22519	-623.78070	
113	1.12000000	-903.57881	778.33715	-422.59331	-941.21785	753.15699	-391.94923	-1174.42006	478.04871	-439.40585	-1246.51103	479.66847	-492.40873	-1111.49866	354.71308	-413.97678	-1060.20735	359.46090	-464.91123	-909.37809	782.66594	-731.90275	-926.01089	698.76553	-751.31909	-1172.12964	485.10446	-721.99654	-1245.72095	486.34629	-670.81467	-1110.99201	361.16553	-734.22620	-1063.84187	361.66817	-680.00280	-1016.41653	665.20910	-387.42685	-887.65339	713.64403	-430.33836	-961.81482	626.47261	-440.38787	-984.00846	763.83035	-752.44648	-1066.76970	672.04699	-753.98566	-815.12980	1070.13424	-474.24954	-804.90703	959.26101	-465.35613	-822.91389	939.29161	-402.86103	-875.32609	1070.25227	-381.03444	-870.10572	956.09927	-377.18056	-876.27336	1101.37119	-738.00748	-873.96037	960.04868	-755.28322	-988.62762	1098.48721	-740.14956	-985.82235	957.17531	-721.23997	-820.48859	1236.51405	-441.00446	-996.88099	1314.82982	-509.52503	-836.30844	1222.86118	-675.88337	-1003.35046	1315.20423	-608.33652	-804.61966	1738.33240	-568.45380	-753.89264	1710.76184	-434.70801	-760.61467	1698.48248	-703.12491	-717.45112	1622.94094	-542.07073	-717.41845	1619.17509	-577.54679	-625.53511	1553.10403	-333.12335	-594.06607	1428.34529	-356.42250	-571.87821	1474.36114	-304.42109	-504.12950	1583.77324	-365.74373	-483.36369	1660.45689	-427.00658	-443.93022	1645.32417	-414.19950	-664.82346	1528.30576	-818.35868	-629.69476	1397.67340	-789.96035	-612.25262	1431.71399	-851.48788	-517.23667	1522.06525	-778.20129	-474.32946	1583.61241	-704.41545	-440.54238	1560.46011	-721.46201	-914.93177	1175.74581	-469.01408	-934.79752	1178.65866	-658.62547	-907.37344	1178.20058	-468.16881	-917.54016	1178.78939	-623.46677	
